{"asset":{"version":"2.0","generator":"VECTARY"},"nodes":[{"translation":[0.1561004993427066,0.18652195922030762,0.14511437508026254],"scale":[0.001,0.0009999999999999998,0.0009999999999999998],"rotation":[-0.2921880188094485,0.36862208871662605,0.058216835067319145,0.8805422860312536],"name":"Image Plane","mesh":0},{"translation":[0.03624984363076135,0.0037800691005021427,0.019825147197180683],"scale":[1,1,1],"rotation":[-0.7071067811865475,0,0,0.7071067811865476],"name":"buffer-0-mesh-0","mesh":1},{"translation":[0.5192224586241266,0.3609886817409018,0.250168936134466],"scale":[1,1,1],"rotation":[-0.21176966732826463,0.506514337300039,0.12991301354408252,0.8256630323691823],"name":"Camera","camera":0}],"materials":[{"pbrMetallicRoughness":{"baseColorFactor":[1,1,1,1],"baseColorTexture":{"index":0,"extensions":{"KHR_texture_transform":{"offset":[0,0],"scale":[1,1],"rotation":0}},"texCoord":0},"metallicFactor":0,"roughnessFactor":1},"name":"Material 1","emissiveTexture":{"index":1,"extensions":{"KHR_texture_transform":{"offset":[0,0],"scale":[1,1],"rotation":0}},"texCoord":0},"emissiveFactor":[0,0,0],"alphaMode":"BLEND","doubleSided":true},{"pbrMetallicRoughness":{"baseColorFactor":[0.5795466117825252,0.5795466117825252,0.5795466117825252,0.7],"baseColorTexture":{"index":2,"extensions":{"KHR_texture_transform":{"offset":[0,0],"scale":[1,1],"rotation":0}},"texCoord":0},"metallicFactor":0,"roughnessFactor":1},"name":"Material","emissiveFactor":[0,0,0],"alphaMode":"BLEND","doubleSided":false}],"textures":[{"sampler":0,"source":0},{"sampler":0,"source":1},{"sampler":1,"source":2}],"images":[{"uri":"83db6d67-f948-4976-9602-366b833a5ee6.png","mimeType":"image/png"},{"uri":"cc6fdbb6-3c37-43f7-bd23-1a8b3e47b284.png","mimeType":"image/png"},{"uri":"1e5008bf-a0c3-404f-a2bb-0ba9f04ec12b.jpg","mimeType":"image/jpeg"}],"samplers":[{"wrapS":33071,"wrapT":33071},{"wrapS":10497,"wrapT":10497}],"meshes":[{"primitives":[{"mode":4,"attributes":{"POSITION":1,"NORMAL":2,"TEXCOORD_0":3},"material":0,"indices":0}]},{"primitives":[{"mode":4,"attributes":{"POSITION":5,"NORMAL":6,"TEXCOORD_0":7},"material":1,"indices":4}]}],"accessors":[{"bufferView":0,"byteOffset":0,"componentType":5125,"count":24,"type":"SCALAR"},{"bufferView":1,"byteOffset":0,"componentType":5126,"count":24,"max":[40,60,0.20000000298023224],"min":[-40,-60,0.20000000298023224],"type":"VEC3"},{"bufferView":2,"byteOffset":0,"componentType":5126,"count":24,"type":"VEC3"},{"bufferView":3,"byteOffset":0,"componentType":5126,"count":24,"type":"VEC2"},{"bufferView":4,"byteOffset":0,"componentType":5125,"count":76020,"type":"SCALAR"},{"bufferView":5,"byteOffset":0,"componentType":5126,"count":76020,"max":[0.10764999687671661,0.12600000202655792,0.17470002174377441],"min":[-0.10764999687671661,-0.12600000202655792,0],"type":"VEC3"},{"bufferView":6,"byteOffset":0,"componentType":5126,"count":76020,"type":"VEC3"},{"bufferView":7,"byteOffset":0,"componentType":5126,"count":76020,"type":"VEC2"}],"bufferViews":[{"buffer":0,"byteOffset":0,"byteLength":96,"target":34963},{"buffer":0,"byteOffset":96,"byteLength":288,"target":34962},{"buffer":0,"byteOffset":384,"byteLength":288,"target":34962},{"buffer":0,"byteOffset":672,"byteLength":192,"target":34962},{"buffer":0,"byteOffset":864,"byteLength":304080,"target":34963},{"buffer":0,"byteOffset":304944,"byteLength":912240,"target":34962},{"buffer":0,"byteOffset":1217184,"byteLength":912240,"target":34962},{"buffer":0,"byteOffset":2129424,"byteLength":608160,"target":34962}],"cameras":[{"name":"Camera","type":"perspective","extras":{"targetDistance":0.7449453988387106},"perspective":{"aspectRatio":1.2035864978902953,"yfov":0.6108652381980153,"zfar":48.27275243111412,"znear":0.003901677223193291}}],"scene":0,"scenes":[{"nodes":[0,1,2],"name":"Model"}],"extensionsUsed":["KHR_texture_transform"],"buffers":[{"byteLength":2737584,"uri":"Model.bin"}]}