{"asset":{"version":"2.0","generator":"VECTARY"},"nodes":[{"translation":[0.03624984363076135,0.0037800691005021427,0.019825147197180683],"scale":[1,1,1],"rotation":[-0.7071067811865475,0,0,0.7071067811865476],"name":"buffer-0-mesh-0","mesh":0},{"translation":[1.6485079569325967,0.5082228352431565,-0.0677313846116131],"scale":[1,1,1],"rotation":[-0.08930019336920159,0.7093736989648521,0.09138981732393076,0.6931539020813813],"name":"Camera","camera":0}],"materials":[{"pbrMetallicRoughness":{"baseColorFactor":[0.5795466117825252,0.5795466117825252,0.5795466117825252,0.7],"baseColorTexture":{"index":0,"extensions":{"KHR_texture_transform":{"offset":[0,0],"scale":[1,1],"rotation":0}},"texCoord":0},"metallicFactor":0,"roughnessFactor":1},"name":"Material","emissiveFactor":[0,0,0],"alphaMode":"BLEND","doubleSided":false}],"textures":[{"sampler":0,"source":0}],"images":[{"uri":"f1f330de-0425-4805-b0b4-7fb0adb9fb31.jpg","mimeType":"image/jpeg"}],"samplers":[{"wrapS":10497,"wrapT":10497}],"meshes":[{"primitives":[{"mode":4,"attributes":{"POSITION":1,"NORMAL":2,"TEXCOORD_0":3},"material":0,"indices":0}]}],"accessors":[{"bufferView":0,"byteOffset":0,"componentType":5125,"count":76020,"type":"SCALAR"},{"bufferView":1,"byteOffset":0,"componentType":5126,"count":76020,"max":[0.10764999687671661,0.12600000202655792,0.17470002174377441],"min":[-0.10764999687671661,-0.12600000202655792,0],"type":"VEC3"},{"bufferView":2,"byteOffset":0,"componentType":5126,"count":76020,"type":"VEC3"},{"bufferView":3,"byteOffset":0,"componentType":5126,"count":76020,"type":"VEC2"}],"bufferViews":[{"buffer":0,"byteOffset":0,"byteLength":304080,"target":34963},{"buffer":0,"byteOffset":304080,"byteLength":912240,"target":34962},{"buffer":0,"byteOffset":1216320,"byteLength":912240,"target":34962},{"buffer":0,"byteOffset":2128560,"byteLength":608160,"target":34962}],"cameras":[{"name":"Camera","type":"perspective","extras":{"targetDistance":1.7773473878647894},"perspective":{"aspectRatio":1.2691879866518354,"yfov":0.6108652381980153,"zfar":87.50795153401542,"znear":0.007928447657438425}}],"scene":0,"scenes":[{"nodes":[0,1],"name":"Model"}],"extensionsUsed":["KHR_texture_transform"],"buffers":[{"byteLength":2736720,"uri":"Model.bin"}]}