{"asset":{"version":"2.0","generator":"VECTARY"},"nodes":[{"translation":[0.13367676860007305,0.16537175112266553,0.10976614806324328],"scale":[0.0010000000000000002,0.001,0.001],"rotation":[-0.502922750272222,0.038167415655298575,-0.5736413988914875,0.6454049125306046],"name":"Box - baked","mesh":0},{"translation":[0.03624984363076135,0.0037800691005021427,0.019825147197180683],"scale":[1,1,1],"rotation":[-0.7071067811865475,0,0,0.7071067811865476],"name":"buffer-0-mesh-0","mesh":1},{"translation":[0.22725925117976947,0.2541806540967474,0.2479232020180398],"scale":[1,1,1],"rotation":[-0.27616111965030976,0.27184592512858047,0.08175848635971067,0.9182322031450664],"name":"Camera","camera":0}],"materials":[{"pbrMetallicRoughness":{"baseColorFactor":[1,0.0019634162133964697,0.0019634162133964697,1],"metallicFactor":0,"roughnessFactor":0.2},"name":"Box material 2","emissiveTexture":{"index":0,"extensions":{"KHR_texture_transform":{"offset":[0,0],"scale":[1,1],"rotation":0}},"texCoord":0},"emissiveFactor":[0,0,0],"alphaMode":"OPAQUE","doubleSided":false},{"pbrMetallicRoughness":{"baseColorFactor":[0.5795466117825252,0.5795466117825252,0.5795466117825252,0.7],"baseColorTexture":{"index":1,"extensions":{"KHR_texture_transform":{"offset":[0,0],"scale":[1,1],"rotation":0}},"texCoord":0},"metallicFactor":0,"roughnessFactor":1},"name":"Material","emissiveFactor":[0,0,0],"alphaMode":"BLEND","doubleSided":false}],"textures":[{"sampler":0,"source":0},{"sampler":0,"source":1}],"images":[{"uri":"26a6f441-2dac-422d-98cc-35eb2f534743.png","mimeType":"image/png"},{"uri":"4c204718-8f43-4aec-b373-1cdfe81bf7a6.jpg","mimeType":"image/jpeg"}],"samplers":[{"wrapS":10497,"wrapT":10497}],"meshes":[{"primitives":[{"mode":4,"attributes":{"POSITION":1,"NORMAL":2,"TEXCOORD_0":3},"material":0,"indices":0}]},{"primitives":[{"mode":4,"attributes":{"POSITION":5,"NORMAL":6,"TEXCOORD_0":7},"material":1,"indices":4}]}],"accessors":[{"bufferView":0,"byteOffset":0,"componentType":5125,"count":144,"type":"SCALAR"},{"bufferView":1,"byteOffset":0,"componentType":5126,"count":144,"max":[20,15,2],"min":[-20,-15,0],"type":"VEC3"},{"bufferView":2,"byteOffset":0,"componentType":5126,"count":144,"type":"VEC3"},{"bufferView":3,"byteOffset":0,"componentType":5126,"count":144,"type":"VEC2"},{"bufferView":4,"byteOffset":0,"componentType":5125,"count":76020,"type":"SCALAR"},{"bufferView":5,"byteOffset":0,"componentType":5126,"count":76020,"max":[0.10764999687671661,0.12600000202655792,0.17470002174377441],"min":[-0.10764999687671661,-0.12600000202655792,0],"type":"VEC3"},{"bufferView":6,"byteOffset":0,"componentType":5126,"count":76020,"type":"VEC3"},{"bufferView":7,"byteOffset":0,"componentType":5126,"count":76020,"type":"VEC2"}],"bufferViews":[{"buffer":0,"byteOffset":0,"byteLength":576,"target":34963},{"buffer":0,"byteOffset":576,"byteLength":1728,"target":34962},{"buffer":0,"byteOffset":2304,"byteLength":1728,"target":34962},{"buffer":0,"byteOffset":4032,"byteLength":1152,"target":34962},{"buffer":0,"byteOffset":5184,"byteLength":304080,"target":34963},{"buffer":0,"byteOffset":309264,"byteLength":912240,"target":34962},{"buffer":0,"byteOffset":1221504,"byteLength":912240,"target":34962},{"buffer":0,"byteOffset":2133744,"byteLength":608160,"target":34962}],"cameras":[{"name":"Camera","type":"perspective","extras":{"targetDistance":0.4415090243881209},"perspective":{"aspectRatio":1.2035864978902953,"yfov":0.6108652381980153,"zfar":36.741017028451445,"znear":0.0027181570108147533}}],"scene":0,"scenes":[{"nodes":[0,1,2],"name":"Model"}],"extensionsUsed":["KHR_texture_transform"],"buffers":[{"byteLength":2741904,"uri":"Model.bin"}]}