{"asset":{"version":"2.0","generator":"VECTARY"},"nodes":[{"translation":[0.14496406206711582,0.1576562543134039,0.12348682679030643],"scale":[0.001,0.0009999999999999998,0.0009999999999999998],"rotation":[-0.2921880188094485,0.36862208871662605,0.058216835067319145,0.8805422860312536],"name":"Image Plane","mesh":0},{"translation":[0.03624984363076135,0.0037800691005021427,0.019825147197180683],"scale":[1,1,1],"rotation":[-0.7071067811865475,0,0,0.7071067811865476],"name":"buffer-0-mesh-0","mesh":1},{"translation":[1.701050601646984,0.7302819274956336,-0.38591050369106344],"scale":[1,1,1],"rotation":[-0.11448195701635538,0.7603909610074344,0.1395309370124203,0.6238834711324956],"name":"Camera","camera":0}],"materials":[{"pbrMetallicRoughness":{"baseColorFactor":[1,1,1,1],"baseColorTexture":{"index":0,"extensions":{"KHR_texture_transform":{"offset":[0,0],"scale":[1,1],"rotation":0}},"texCoord":0},"metallicFactor":0,"roughnessFactor":1},"name":"Material 1","emissiveTexture":{"index":1,"extensions":{"KHR_texture_transform":{"offset":[0,0],"scale":[1,1],"rotation":0}},"texCoord":0},"emissiveFactor":[0,0,0],"alphaMode":"BLEND","doubleSided":true},{"pbrMetallicRoughness":{"baseColorFactor":[0.5795466117825252,0.5795466117825252,0.5795466117825252,0.7],"baseColorTexture":{"index":2,"extensions":{"KHR_texture_transform":{"offset":[0,0],"scale":[1,1],"rotation":0}},"texCoord":0},"metallicFactor":0,"roughnessFactor":1},"name":"Material","emissiveFactor":[0,0,0],"alphaMode":"BLEND","doubleSided":false}],"textures":[{"sampler":0,"source":0},{"sampler":0,"source":1},{"sampler":1,"source":2}],"images":[{"uri":"5c9ba98f-fa5a-4b6d-8578-744373beb960.png","mimeType":"image/png"},{"uri":"cc6fdbb6-3c37-43f7-bd23-1a8b3e47b284.png","mimeType":"image/png"},{"uri":"fa79dc27-2f61-4dfd-919a-509d52dc2ce7.jpg","mimeType":"image/jpeg"}],"samplers":[{"wrapS":33071,"wrapT":33071},{"wrapS":10497,"wrapT":10497}],"meshes":[{"primitives":[{"mode":4,"attributes":{"POSITION":1,"NORMAL":2,"TEXCOORD_0":3},"material":0,"indices":0}]},{"primitives":[{"mode":4,"attributes":{"POSITION":5,"NORMAL":6,"TEXCOORD_0":7},"material":1,"indices":4}]}],"accessors":[{"bufferView":0,"byteOffset":0,"componentType":5125,"count":24,"type":"SCALAR"},{"bufferView":1,"byteOffset":0,"componentType":5126,"count":24,"max":[25,37.5,0.20000000298023224],"min":[-25,-37.5,0.20000000298023224],"type":"VEC3"},{"bufferView":2,"byteOffset":0,"componentType":5126,"count":24,"type":"VEC3"},{"bufferView":3,"byteOffset":0,"componentType":5126,"count":24,"type":"VEC2"},{"bufferView":4,"byteOffset":0,"componentType":5125,"count":76020,"type":"SCALAR"},{"bufferView":5,"byteOffset":0,"componentType":5126,"count":76020,"max":[0.10764999687671661,0.12600000202655792,0.17470002174377441],"min":[-0.10764999687671661,-0.12600000202655792,0],"type":"VEC3"},{"bufferView":6,"byteOffset":0,"componentType":5126,"count":76020,"type":"VEC3"},{"bufferView":7,"byteOffset":0,"componentType":5126,"count":76020,"type":"VEC2"}],"bufferViews":[{"buffer":0,"byteOffset":0,"byteLength":96,"target":34963},{"buffer":0,"byteOffset":96,"byteLength":288,"target":34962},{"buffer":0,"byteOffset":384,"byteLength":288,"target":34962},{"buffer":0,"byteOffset":672,"byteLength":192,"target":34962},{"buffer":0,"byteOffset":864,"byteLength":304080,"target":34963},{"buffer":0,"byteOffset":304944,"byteLength":912240,"target":34962},{"buffer":0,"byteOffset":1217184,"byteLength":912240,"target":34962},{"buffer":0,"byteOffset":2129424,"byteLength":608160,"target":34962}],"cameras":[{"name":"Camera","type":"perspective","extras":{"targetDistance":1.9595254951209304},"perspective":{"aspectRatio":1.2035864978902953,"yfov":0.6108652381980153,"zfar":94.43141195579096,"znear":0.008639013332304862}}],"scene":0,"scenes":[{"nodes":[0,1,2],"name":"Model"}],"extensionsUsed":["KHR_texture_transform"],"buffers":[{"byteLength":2737584,"uri":"Model.bin"}]}