{"asset":{"version":"2.0","generator":"VECTARY"},"nodes":[{"translation":[0.08775219085475087,-0.0022543938537304556,0.049747546555773126],"scale":[0.0009999999999999998,0.0009999999999999998,0.0009999999999999998],"rotation":[-0.89253893528903,0.15737869562426254,-0.27165378227418424,0.32374437096706493],"name":"Image Plane","mesh":0},{"translation":[0.050521630887854004,-0.06458015595154605,0.07975827258752514],"scale":[0.2544529343985546,0.2544529343985546,0.2544529343985546],"rotation":[-0.7071067811865475,0,0,0.7071067811865476],"name":"Model","mesh":1},{"translation":[0.2417693758072561,0.008924343372567563,-0.13804197168886648],"scale":[1,1,1],"rotation":[-0.03128870732155914,0.9237526373141858,0.0773230557356302,0.37379570208997454],"name":"Camera","camera":0}],"materials":[{"pbrMetallicRoughness":{"baseColorFactor":[1,1,1,1],"baseColorTexture":{"index":0,"extensions":{"KHR_texture_transform":{"offset":[0,0],"scale":[1,1],"rotation":0}},"texCoord":0},"metallicFactor":0,"roughnessFactor":1},"name":"Material","emissiveTexture":{"index":1,"extensions":{"KHR_texture_transform":{"offset":[0,0],"scale":[1,1],"rotation":0}},"texCoord":0},"emissiveFactor":[0,0,0],"alphaMode":"BLEND","doubleSided":true},{"pbrMetallicRoughness":{"baseColorFactor":[1,1,1,0.7],"baseColorTexture":{"index":2,"extensions":{"KHR_texture_transform":{"offset":[0,0],"scale":[1,1],"rotation":0}},"texCoord":0},"metallicFactor":0,"roughnessFactor":0.2},"name":"material0 1","emissiveFactor":[0,0,0],"alphaMode":"BLEND","doubleSided":false}],"textures":[{"sampler":0,"source":0},{"sampler":0,"source":1},{"sampler":1,"source":2}],"images":[{"uri":"d33d335a-f21d-4958-84e7-43c58656601c.png","mimeType":"image/png"},{"uri":"b399c7be-e071-436b-9a80-d580ecae9b45.png","mimeType":"image/png"},{"uri":"79fca54c-3efd-4d93-b56c-ff0e06a8b241.jpg","mimeType":"image/jpeg"}],"samplers":[{"wrapS":33071,"wrapT":33071},{"wrapS":10497,"wrapT":10497}],"meshes":[{"primitives":[{"mode":4,"attributes":{"POSITION":1,"NORMAL":2,"TEXCOORD_0":3},"material":0,"indices":0}]},{"primitives":[{"mode":4,"attributes":{"POSITION":5,"NORMAL":6,"TEXCOORD_0":7},"material":1,"indices":4}]}],"accessors":[{"bufferView":0,"byteOffset":0,"componentType":5125,"count":24,"type":"SCALAR"},{"bufferView":1,"byteOffset":0,"componentType":5126,"count":24,"max":[5,7.5,0.20000000298023224],"min":[-5,-7.5,0.20000000298023224],"type":"VEC3"},{"bufferView":2,"byteOffset":0,"componentType":5126,"count":24,"type":"VEC3"},{"bufferView":3,"byteOffset":0,"componentType":5126,"count":24,"type":"VEC2"},{"bufferView":4,"byteOffset":0,"componentType":5125,"count":85821,"type":"SCALAR"},{"bufferView":5,"byteOffset":0,"componentType":5126,"count":85821,"max":[0.11015000194311142,0.0840500071644783,0.24979999661445618],"min":[-0.11014999449253082,-0.0840500146150589,5.612973974500335e-10],"type":"VEC3"},{"bufferView":6,"byteOffset":0,"componentType":5126,"count":85821,"type":"VEC3"},{"bufferView":7,"byteOffset":0,"componentType":5126,"count":85821,"type":"VEC2"}],"bufferViews":[{"buffer":0,"byteOffset":0,"byteLength":96,"target":34963},{"buffer":0,"byteOffset":96,"byteLength":288,"target":34962},{"buffer":0,"byteOffset":384,"byteLength":288,"target":34962},{"buffer":0,"byteOffset":672,"byteLength":192,"target":34962},{"buffer":0,"byteOffset":864,"byteLength":343284,"target":34963},{"buffer":0,"byteOffset":344148,"byteLength":1029852,"target":34962},{"buffer":0,"byteOffset":1374000,"byteLength":1029852,"target":34962},{"buffer":0,"byteOffset":2403852,"byteLength":686568,"target":34962}],"cameras":[{"name":"Camera","type":"perspective","extras":{"targetDistance":0.41279293582162907},"perspective":{"aspectRatio":1.2035864978902953,"yfov":0.6108652381980153,"zfar":35.64969653087499,"znear":0.0026061530650108543}}],"scene":0,"scenes":[{"nodes":[0,1,2],"name":"Project Name"}],"extensionsUsed":["KHR_texture_transform"],"buffers":[{"byteLength":3090420,"uri":"ProjectName.bin"}]}